<?xml version="1.0" encoding="utf-8"?>
<!-- Generator: Adobe Illustrator 26.5.0, SVG Export Plug-In . SVG Version: 6.00 Build 0)  -->
<svg version="1.1" id="Layer_1" xmlns="http://www.w3.org/2000/svg" xmlns:xlink="http://www.w3.org/1999/xlink" x="0px" y="0px"
	 viewBox="0 0 2048 1068" style="enable-background:new 0 0 2048 1068;" xml:space="preserve">
<style type="text/css">
	.st0{fill:url(#SVGID_1_);}
	.st1{fill:url(#SVGID_00000039856582247819571230000004414064918934196353_);}
	.st2{fill:url(#SVGID_00000013898626386713739700000018324885285750696852_);}
	.st3{fill:#50C8EF;}
	.st4{fill:url(#SVGID_00000143591911822840349200000004463890959997070269_);}
	.st5{fill:url(#SVGID_00000049938766941289809870000015929683465871721371_);}
	.st6{fill:url(#SVGID_00000098180015294058320370000018226610422559592359_);}
	.st7{fill:url(#SVGID_00000114036657863560941970000016999646623916483770_);}
	.st8{fill:url(#SVGID_00000167389098348933321190000001343601622758235521_);}
	.st9{fill:url(#SVGID_00000026148102905907519070000010262516846744343178_);}
</style>
<g>
	<linearGradient id="SVGID_1_" gradientUnits="userSpaceOnUse" x1="249.9432" y1="426.4046" x2="412.4293" y2="426.4046">
		<stop  offset="0" style="stop-color:#BF8E4E"/>
		<stop  offset="0.51" style="stop-color:#EECE79"/>
		<stop  offset="1" style="stop-color:#BF8E4E"/>
	</linearGradient>
	<path class="st0" d="M331.19,507.65c-44.8,0-81.24-36.44-81.24-81.24s36.44-81.24,81.24-81.24s81.24,36.44,81.24,81.24
		S375.98,507.65,331.19,507.65z M331.19,351.03c-41.56,0-75.37,33.81-75.37,75.37s33.81,75.37,75.37,75.37s75.37-33.81,75.37-75.37
		S372.75,351.03,331.19,351.03z"/>
	
		<linearGradient id="SVGID_00000058551396783898118750000015455992797453761445_" gradientUnits="userSpaceOnUse" x1="263.1913" y1="444.644" x2="399.1775" y2="444.644">
		<stop  offset="0" style="stop-color:#BF8E4E"/>
		<stop  offset="0.51" style="stop-color:#EECE79"/>
		<stop  offset="1" style="stop-color:#BF8E4E"/>
	</linearGradient>
	<path style="fill:url(#SVGID_00000058551396783898118750000015455992797453761445_);" d="M331.19,508.9l-68-128.51h135.99
		L331.19,508.9z M269.69,384.31l61.5,116.22l61.49-116.22H269.69z"/>
</g>
<g>
	
		<linearGradient id="SVGID_00000028316023120521768120000014189355953371144067_" gradientUnits="userSpaceOnUse" x1="193.5617" y1="403.4051" x2="422.9245" y2="403.4051">
		<stop  offset="0" style="stop-color:#BF8E4E"/>
		<stop  offset="0.51" style="stop-color:#EECE79"/>
		<stop  offset="1" style="stop-color:#BF8E4E"/>
	</linearGradient>
	<path style="fill:url(#SVGID_00000028316023120521768120000014189355953371144067_);" d="M308.22,518.09
		c-29.38,0-58.75-11.18-81.11-33.54c-44.73-44.72-44.73-117.5,0-162.22c21.66-21.67,50.47-33.6,81.11-33.6
		c30.64,0,59.45,11.94,81.11,33.6l0,0l0,0c21.67,21.66,33.6,50.47,33.6,81.11s-11.93,59.45-33.6,81.11
		C366.97,506.9,337.59,518.08,308.22,518.09z M308.22,296.55c-28.55,0-55.39,11.12-75.57,31.31c-41.67,41.67-41.67,109.47,0,151.15
		c41.67,41.67,109.47,41.67,151.15,0c20.19-20.19,31.31-47.02,31.31-75.57c0-28.55-11.12-55.39-31.31-75.57l0,0
		C363.6,307.67,336.76,296.55,308.22,296.55z"/>
	<path class="st3" d="M238.55,316.42c-4.79-4.79-12.56-4.79-17.35,0c-4.79,4.79-4.79,12.56,0,17.35c4.79,4.79,12.56,4.79,17.35,0
		C243.34,328.98,243.34,321.21,238.55,316.42z"/>
	<circle class="st3" cx="386.56" cy="481.78" r="12.27"/>
</g>
<linearGradient id="SVGID_00000133512824059070204660000012543050393536179623_" gradientUnits="userSpaceOnUse" x1="19.334" y1="413.0469" x2="183.5765" y2="413.0469">
	<stop  offset="0" style="stop-color:#BF8E4E"/>
	<stop  offset="0.51" style="stop-color:#EECE79"/>
	<stop  offset="1" style="stop-color:#BF8E4E"/>
</linearGradient>
<path style="fill:url(#SVGID_00000133512824059070204660000012543050393536179623_);" d="M72.8,408.76
	c8.08-3.94,17.53-16.25,28.36-36.92c11.23-20.87,29.34-31.31,54.35-31.31c9.65,0,17.33,2.86,23.04,8.56
	c3.34,3.94,5.02,8.57,5.02,13.88c-0.2,10.64-5.71,15.95-16.54,15.95c-9.65,0-14.47-4.23-14.47-12.7c0-4.72,2.66-8.37,7.98-10.93
	c1.77-0.98,2.66-1.57,2.66-1.77c-0.59-1.37-2.76-2.07-6.5-2.07h-2.66c-5.52,0.2-13.79,9.75-24.81,28.65
	c-11.03,18.91-19.99,29.35-26.88,31.31c15.16,2.76,28.55,13.88,40.17,33.38c12.01,19.5,24.71,29.64,38.11,30.43v10.34h-28.65
	c-18.12,0-32.3-10.44-42.54-31.31c-10.24-20.87-19.89-31.31-28.95-31.31c-3.35,0-5.91,0.4-7.68,1.18v34.86
	c0,10.83,6.4,16.44,19.2,16.84v9.75H24.65v-9.75c11.82-0.39,17.73-6.01,17.73-16.84v-88.62c-0.99-9.45-8.67-14.28-23.04-14.48
	v-11.81l27.47-0.59c8.07-0.59,16.73-1.48,25.99-2.66V408.76z"/>
<linearGradient id="SVGID_00000000905515305180698280000000062333770553274557_" gradientUnits="userSpaceOnUse" x1="442.4836" y1="412.8978" x2="600.2323" y2="412.8978">
	<stop  offset="0" style="stop-color:#BF8E4E"/>
	<stop  offset="0.51" style="stop-color:#EECE79"/>
	<stop  offset="1" style="stop-color:#BF8E4E"/>
</linearGradient>
<path style="fill:url(#SVGID_00000000905515305180698280000000062333770553274557_);" d="M571.28,359.43
	c10.83,12.61,16.25,30.43,16.25,53.47c0,49.23-24.12,73.85-72.37,73.85c-48.45,0-72.67-24.62-72.67-73.85
	c0-49.23,24.22-73.85,72.67-73.85c13.98,0,25.89,1.87,35.75,5.61h49.33v14.77H571.28z M514.56,353.23
	c-27.37,0-41.06,19.55-41.06,58.63v2.08c0.59,39.09,14.67,58.63,42.24,58.63c27.18,0,40.77-19.54,40.77-58.63v-1.19
	C555.92,373.07,541.93,353.23,514.56,353.23z"/>
<linearGradient id="SVGID_00000093856892223024744300000001732989267674019201_" gradientUnits="userSpaceOnUse" x1="618.6331" y1="443.6943" x2="780.2749" y2="443.6943">
	<stop  offset="0" style="stop-color:#BF8E4E"/>
	<stop  offset="0.51" style="stop-color:#EECE79"/>
	<stop  offset="1" style="stop-color:#BF8E4E"/>
</linearGradient>
<path style="fill:url(#SVGID_00000093856892223024744300000001732989267674019201_);" d="M627.26,334.32h26v100.73
	c0,16.64,5.27,27.33,15.8,32.05c4.63,1.97,8.84,2.98,12.63,3.03c3.79,0.05,7.8-0.86,12.04-2.73c3.94-1.77,8.15-4.55,12.63-8.34
	c4.48-3.79,7.66-7.85,9.53-12.18V334.32h26v116.09c0,9.35,2.31,16.44,6.94,21.27c4.82,4.82,10.19,5.61,16.1,2.36
	c2.46-1.48,4.21-3.22,5.24-5.24c1.04-2.02,1.9-4.63,2.59-7.83c0.69-3.2,1.18-5.2,1.48-5.98h6.05c-1.77,7.58-3.87,13.76-6.28,18.53
	c-2.41,4.78-7.17,9.08-14.25,12.93c-6.5,3.44-12.53,4.85-18.09,4.21c-5.56-0.64-9.92-2.14-13.07-4.51
	c-2.46-1.97-4.36-3.81-5.69-5.54c-1.33-1.72-2.41-3.57-3.25-5.54c-0.84-1.97-1.48-4.06-1.92-6.28c-0.44-2.22-0.96-4.8-1.55-7.76
	c-4.83,7.19-11.87,14.13-21.12,20.83c-7.98,5.91-17.48,8.86-28.51,8.86c-4.13,0-8.02-0.86-11.67-2.58
	c-3.64-1.72-6.99-3.86-10.04-6.43c-3.05-2.56-5.27-4.38-6.65-5.46v6.94c0.3,6.7,1.67,13.98,4.14,21.86
	c2.46,7.88,4.08,13.98,4.87,18.32c1.67,9.26,0.94,16.52-2.22,21.79c-3.15,5.27-7.04,7.9-11.67,7.9c-4.63,0-8.49-2.61-11.6-7.83
	c-3.1-5.22-3.87-12.5-2.29-21.86c0.79-4.53,2.01-9.65,3.69-15.36c1.67-5.71,2.78-10.07,3.32-13.07c0.54-3,0.81-6.92,0.81-11.74
	V334.32z"/>
<linearGradient id="SVGID_00000133512807880855697310000005976702570286094239_" gradientUnits="userSpaceOnUse" x1="794.5785" y1="414.0304" x2="981.5139" y2="414.0304">
	<stop  offset="0" style="stop-color:#BF8E4E"/>
	<stop  offset="0.51" style="stop-color:#EECE79"/>
	<stop  offset="1" style="stop-color:#BF8E4E"/>
</linearGradient>
<path style="fill:url(#SVGID_00000133512807880855697310000005976702570286094239_);" d="M899.84,433.54
	c0,18.76,10.59,33.27,25.11,33.27c15.13,0,30.55-18.75,30.55-58.08c0-28.74-10.28-55.05-24.2-68.66v-0.91h25.11
	c13,11.19,25.11,36.6,25.11,70.18c0,54.45-27.53,79.55-55.36,79.55c-17.85,0-32.06-9.98-38.11-26.01h-1.21
	c-6.96,16.03-20.87,26.01-38.72,26.01c-25.41,0-53.54-21.48-53.54-77.13c0-32.97,12.7-59.89,25.71-72.6h24.5v0.91
	c-13.61,14.52-24.2,39.92-24.2,71.08c0,40.83,17.24,55.66,31.16,55.66c13.61,0,24.2-14.82,24.2-32.97l-0.6-55.96h25.11
	L899.84,433.54z"/>
<g>
	
		<linearGradient id="SVGID_00000005986764237526724560000015821790803016901536_" gradientUnits="userSpaceOnUse" x1="847.3137" y1="305.7546" x2="933.3841" y2="305.7546">
		<stop  offset="0" style="stop-color:#BF8E4E"/>
		<stop  offset="0.51" style="stop-color:#EECE79"/>
		<stop  offset="1" style="stop-color:#BF8E4E"/>
	</linearGradient>
	<path style="fill:url(#SVGID_00000005986764237526724560000015821790803016901536_);" d="M885.32,311.51
		c-9.86-2.88-17.33-4.31-22.39-4.31c-5.34,0-8.42,1.44-9.24,4.31c-1.1,3.97-2.4,5.96-3.9,5.96c-0.82,0-1.64-0.41-2.46-1.23
		c0.55-9.04,4.52-15.88,11.91-20.54c1.78-1.09,4.38-1.64,7.81-1.64c6.71,0,16.23,1.92,28.55,5.75c9.58,3.01,17.05,4.52,22.39,4.52
		c5.2,0,8.22-1.51,9.04-4.52c0.95-3.83,2.32-5.75,4.11-5.75c0.55,0,1.3,0.34,2.26,1.03c-0.55,9.31-4.45,16.16-11.71,20.54
		c-1.78,1.1-4.32,1.64-7.6,1.64C907.22,317.26,897.64,315.34,885.32,311.51z"/>
</g>
<circle class="st3" cx="331.19" cy="426.4" r="26.44"/>
<g>
	<g>
		<path d="M180.15,608.7c-0.41-1.74-0.91-2.89-1.65-4.21c-1.65-2.89-4.63-4.88-8.59-4.88s-6.94,1.98-8.59,4.88
			c-2.15,3.47-2.4,6.94-2.4,19.25s0.25,15.87,2.4,19.34c1.74,2.98,4.71,4.79,8.59,4.79c2.89,0,5.04-0.74,6.61-2.31
			c1.98-1.74,3.31-3.97,3.88-6.69h5.12c-0.17,1.4-0.5,2.73-0.91,3.97c-2.56,6.86-8.68,10.16-14.71,10.16
			c-6.03,0-12.15-3.31-14.71-10.16c-1.07-2.98-1.41-7.11-1.49-11.74c0-1.98-0.08-4.46-0.08-7.36c0-2.97,0.08-5.45,0.08-7.52
			c0.08-4.63,0.41-8.68,1.49-11.57c2.4-6.78,8.76-10.25,14.71-10.25s12.31,3.47,14.71,10.25c0.41,1.24,0.74,2.64,0.91,4.05H180.15z"
			/>
		<path d="M268.17,652.41l-10.91-25.95h-11.65v25.95h-5.21V594.9h17.35c9.26,0,14.96,5.37,14.96,15.7c0,7.6-3.31,13.3-10.33,15.21
			l11.4,26.61H268.17z M256.93,599.52h-11.32v22.31h11.49c7.52,0,10.58-4.63,10.58-11.32C267.68,603.57,264.54,599.52,256.93,599.52
			z"/>
		<path d="M328.92,652.41V594.9h28.92v4.71h-23.72v21.32h20.41v4.63h-20.41v21.9h23.72v4.96H328.92z"/>
		<path d="M441.31,652.41l-3.8-13.47h-20.25l-3.72,13.47h-5.29l16.69-57.52h4.96l16.78,57.52H441.31z M427.43,602.99l-0.17,0.08
			l-8.84,31.32h17.93L427.43,602.99z"/>
		<path d="M511.32,599.61v52.81h-5.21v-52.81h-13.55v-4.71h32.31v4.71H511.32z"/>
		<path d="M577.85,652.41V594.9h5.29v57.52H577.85z"/>
		<path d="M672.48,627.79c0,1.24,0,2.31-0.08,3.31c-0.08,4.63-0.41,8.76-1.49,11.74c-2.4,6.86-8.68,10.16-14.71,10.16
			c-6.03,0-12.15-3.31-14.71-10.16c-1.07-2.98-1.24-7.11-1.49-11.74c0-1.98-0.08-4.46-0.08-7.36c0-2.97,0.08-5.45,0.08-7.52
			c0.25-4.63,0.41-8.68,1.49-11.57c2.4-6.78,8.76-10.25,14.71-10.25s12.31,3.47,14.71,10.25c1.07,2.89,1.4,6.94,1.49,11.57
			c0.08,1.07,0.08,2.23,0.08,3.47v4.05V627.79z M664.79,604.48c-1.65-2.89-4.63-4.88-8.59-4.88s-6.86,1.98-8.59,4.88
			c-2.07,3.64-2.4,6.86-2.4,19.25s0.41,15.78,2.4,19.34c1.74,2.98,4.71,4.79,8.59,4.79c3.88,0,6.86-1.82,8.59-4.79
			c2.15-3.47,2.4-7.02,2.4-19.34S666.94,607.95,664.79,604.48z"/>
		<path d="M758.68,652.41c-16.2-30.5-24.3-45.7-24.38-45.7v0.17c0-0.08,0.08,3.31,0.08,8.51v8.68v10v9.83v8.51h-5.29V594.9h5.29
			l24.13,45.95c0-0.08,0-0.08,0.08-0.17V594.9h5.29v57.52H758.68z"/>
		<path d="M845.95,650.18c-2.56,1.74-5.78,2.73-10.41,2.73c-7.93,0-11.98-3.31-16.61-8.35l3.8-3.8c3.55,3.72,7.35,7.11,12.89,7.11
			c8.02,0,11.24-4.63,11.24-10.91c0-5.29-1.32-7.69-5.37-9.75c-1.24-0.58-6.28-2.31-7.93-2.56c-4.88-0.99-8.18-2.23-10.74-5.45
			c-1.74-2.31-2.64-5.45-2.64-9.34c0-5.62,2.07-10,5.79-12.64c2.56-1.74,5.62-2.81,9.83-2.81c6.28,0,10.91,2.81,14.21,8.02
			l-4.05,3.47c-2.89-3.88-5.95-6.2-10.58-6.2c-6.53,0-10.08,4.21-10.08,10.17c0,5.62,2.48,7.85,7.52,9.42
			c1.9,0.66,7.77,2.15,9.26,2.56c3.55,1.24,5.79,2.89,7.36,5.12c1.74,2.4,2.56,5.78,2.56,10
			C851.98,642.5,849.83,647.54,845.95,650.18z"/>
	</g>
</g>
<circle cx="331.19" cy="426.41" r="6.9"/>
<circle cx="90.17" cy="620.12" r="9.57"/>
<circle cx="909.77" cy="620.12" r="9.57"/>
<g>
	<path d="M1233.57,358.83l-15.12-27.2l-10.6,13.75v13.45h-4.52v-48.6h4.52v28.67l21.6-28.57h4.91l-13.06,17.87l16.99,30.64H1233.57z
		"/>
	<path d="M1292.29,350.19c-2.36,6.19-8.25,9.33-14.43,9.33c-6.09,0-12.08-3.24-14.43-9.33c-1.08-2.75-1.28-6.68-1.38-11.29
		c-0.1-2.85-0.1-5.69,0-8.54c0.1-4.62,0.29-8.44,1.38-11.19c2.36-6.19,8.44-9.43,14.43-9.43c6.19,0,12.08,3.24,14.43,9.43
		c1.08,2.75,1.37,6.58,1.47,11.19c0.1,2.85,0.1,5.69,0,8.54C1293.67,343.51,1293.37,347.44,1292.29,350.19z M1287.19,319.55
		c-1.87-3.04-5.11-5.3-9.33-5.3c-4.22,0-7.36,2.26-9.23,5.3c-1.08,1.67-1.47,2.65-1.87,4.71c-0.39,1.96-0.39,4.91-0.39,10.41
		s0,8.54,0.39,10.6c0.29,2.06,0.79,3.04,1.87,4.71c1.87,3.14,5.2,5.11,9.23,5.11c4.22,0,7.36-1.96,9.33-5.11
		c1.08-1.67,1.47-2.65,1.87-4.71c0.29-1.37,0.49-2.75,0.49-4.22v-6.38C1289.54,323.77,1289.05,322.69,1287.19,319.55z"/>
	<path d="M1346.3,313.95c2.26,1.08,3.83,3.44,4.71,5.7c1.08,2.75,1.37,6.48,1.47,11.1c0.1,2.75,0.1,5.5,0,8.35
		c-0.1,4.62-0.39,8.44-1.47,11.19c-2.36,5.99-8.25,9.23-14.43,9.23c-6.19,0-12.08-3.24-14.43-9.23c-1.08-2.75-1.38-6.58-1.47-11.19
		c-0.1-2.85-0.1-5.6,0-8.35c0.1-4.61,0.39-8.35,1.47-11.1c2.36-6.09,8.15-9.33,14.43-9.33h-0.1h20.72v3.63H1346.3z M1347.77,324.66
		c-0.39-2.06-0.88-2.95-1.96-4.61c-1.87-3.04-5.01-5.2-9.23-5.2c-4.22,0-7.36,2.16-9.33,5.2c-1.08,1.67-1.47,2.55-1.87,4.61
		c-0.29,1.96-0.39,4.91-0.39,10.41c0,5.5,0.1,8.35,0.39,10.31c0.39,2.06,0.79,3.04,1.87,4.71c1.96,3.14,5.3,5.11,9.33,5.11
		c4.03,0,7.36-1.96,9.23-5.11c1.08-1.67,1.57-2.65,1.96-4.71c0.49-2.75,0.49-4.91,0.49-10.31
		C1348.26,329.56,1348.16,326.62,1347.77,324.66z"/>
	<path d="M1409.54,358.83v-5.4h-0.29c-3.04,4.32-7.95,6.09-12.57,6.09c-3.83,0-7.27-1.47-10.11-4.42v23.57h-4.62v-68.34h4.62v32.7
		c0,6.97,4.22,11.88,11.39,11.88c6.68,0,11.59-4.81,11.59-12.18v-32.4h4.52v48.51H1409.54z"/>
	<path d="M1496.24,350.19c-2.26,5.89-7.56,9.23-13.45,9.23c-4.52,0-10.11-1.57-13.26-7.86c-3.53,5.89-7.27,7.86-13.06,7.86
		c-5.89,0-11.39-3.34-13.65-9.23c-1.08-2.75-1.38-6.68-1.47-11.29c-0.1-2.85-0.1-5.69,0-8.54c0.1-4.62,0.39-8.44,1.47-11.19
		c1.96-5.4,6.77-8.44,11.88-9.23v4.62c-3.04,0.69-5.3,2.65-6.78,5.01c-1.08,1.67-1.47,2.65-1.87,4.71
		c-0.29,1.96-0.39,4.91-0.39,10.41s0.1,8.54,0.39,10.6c0.39,2.06,0.79,3.04,1.87,4.71c1.87,3.04,4.81,4.91,8.74,4.91
		c6.97,0,10.6-5.3,10.6-11.98v-19.54h4.52v19.54c0,6.68,3.44,11.98,10.6,11.98c3.93,0,6.87-1.87,8.74-4.91
		c1.08-1.67,1.47-2.65,1.87-4.71c0.29-2.06,0.39-5.11,0.39-10.6s-0.1-8.44-0.39-10.41c-0.39-2.06-0.79-3.04-1.87-4.71
		c-1.47-2.36-3.73-4.32-6.78-5.01v-4.62c5.11,0.79,9.92,3.83,11.88,9.23c1.08,2.75,1.38,6.58,1.47,11.19c0.1,2.85,0.1,5.69,0,8.54
		C1497.61,343.51,1497.32,347.44,1496.24,350.19z"/>
	<path d="M1525.4,335.16v-4.71h4.61v4.71H1525.4z M1525.4,358.83v-4.71h4.61v4.71H1525.4z"/>
	<path d="M1592.27,359.12h-3.73l16.4-69.22h3.73L1592.27,359.12z"/>
	<path d="M1664.15,358.83l-15.12-27.2l-10.6,13.75v13.45h-4.52v-68.34h4.52v48.51l21.6-28.67h4.91l-13.06,17.87l16.99,30.64H1664.15
		z"/>
	<path d="M1722.87,350.19c-2.36,6.09-8.15,9.33-14.43,9.33s-12.08-3.24-14.43-9.33c-1.08-2.75-1.38-6.68-1.47-11.29
		c-0.1-2.85-0.1-5.69,0-8.54c0.1-4.62,0.39-8.44,1.47-11.19c2.36-5.99,8.44-9.43,14.43-9.43c5.99,0,12.08,3.44,14.43,9.43
		c1.08,2.75,1.37,6.58,1.47,11.19c0.1,2.85,0.1,5.69,0,8.54C1724.25,343.51,1723.95,347.44,1722.87,350.19z M1717.67,319.55
		c-1.87-3.04-5.01-5.3-9.23-5.3c-4.22,0-7.46,2.26-9.33,5.3c-1.08,1.67-1.47,2.65-1.87,4.71c-0.29,1.96-0.39,4.91-0.39,10.41
		s0.1,8.54,0.39,10.6c0.39,2.06,0.79,3.04,1.87,4.71c1.96,3.14,5.3,5.11,9.33,5.11c4.03,0,7.36-1.96,9.23-5.11
		c1.08-1.67,1.57-2.65,1.96-4.71c0.49-2.75,0.49-5.11,0.49-10.6C1720.12,323.67,1719.63,322.69,1717.67,319.55z"/>
	<path d="M1754,354.8h24.74v4.03h-29.36v-4.12l24.84-40.36h-23.37v-4.03h27.89v4.12L1754,354.8z"/>
	<path d="M1864.86,358.83h-4.52v-32.01c0-7.76-4.32-12.47-11.39-12.47c-7.46,0-11.49,5.79-11.49,13.16v31.32h-4.52v-32.01
		c0-7.17-4.22-12.57-11.29-12.57c-7.66,0-11.68,6.19-11.68,13.55v31.03h-4.52v-48.51h4.52v5.6h0.29c3.24-4.61,8.25-6.09,12.27-6.09
		c4.62,0,9.33,1.77,12.76,7.56l0.1-0.2c4.71-6.58,10.02-7.46,15.12-7.46c7.86,0,14.34,5.3,14.34,14.63V358.83z"/>
	<path d="M1887.54,305.21v-14.73h3.73v14.73H1887.54z"/>
	<path d="M1947.24,350.19c-2.36,6.09-8.15,9.33-14.43,9.33s-12.08-3.24-14.43-9.33c-1.08-2.75-1.38-6.68-1.47-11.29
		c-0.1-2.85-0.1-5.69,0-8.54c0.1-4.62,0.39-8.44,1.47-11.19c2.36-5.99,8.44-9.43,14.43-9.43c5.99,0,12.08,3.44,14.43,9.43
		c1.08,2.75,1.37,6.58,1.47,11.19c0.1,2.85,0.1,5.69,0,8.54C1948.62,343.51,1948.32,347.44,1947.24,350.19z M1942.04,319.55
		c-1.87-3.04-5.01-5.3-9.23-5.3c-4.22,0-7.46,2.26-9.33,5.3c-1.08,1.67-1.47,2.65-1.87,4.71c-0.29,1.96-0.39,4.91-0.39,10.41
		s0.1,8.54,0.39,10.6c0.39,2.06,0.79,3.04,1.87,4.71c1.96,3.14,5.3,5.11,9.33,5.11c4.03,0,7.36-1.96,9.23-5.11
		c1.08-1.67,1.57-2.65,1.96-4.71c0.49-2.75,0.49-5.11,0.49-10.6C1944.49,323.67,1944,322.69,1942.04,319.55z"/>
	<path d="M1976.11,359.12h-3.73l16.4-69.22h3.73L1976.11,359.12z"/>
	<path d="M1221.4,507.4h-3.93l-18.36-68.34h5.01l15.32,58.62h0.29l15.42-58.62h4.91L1221.4,507.4z"/>
	<path d="M1268.04,485.01c0,4.32,0.1,6.77,0.39,8.64c0.79,6.28,6.09,10.02,11.88,10.02c4.62,0,8.25-2.26,10.11-5.01l3.53,1.87
		c-3.04,5.11-8.64,7.46-13.65,7.46c-5.99,0-12.76-3.14-15.12-9.43c-1.08-2.65-1.37-6.58-1.47-11.19c0-1.08-0.1-1.37-0.1-1.87v-2.36
		v-2.45c0-0.49,0.1-0.79,0.1-1.87c0.1-4.62,0.39-8.44,1.47-11.19c2.36-6.19,8.84-9.33,14.83-9.33c9.23,0,15.91,6.48,15.91,17.48
		v9.23H1268.04z M1290.82,471.07c-1.57-5.2-5.3-8.44-10.8-8.44c-5.89,0-11.1,3.93-11.59,10.11c-0.1,1.67-0.39,4.03-0.39,8.05h23.37
		C1291.41,478.83,1291.31,472.54,1290.82,471.07z"/>
	<path d="M1346.2,463.31c-3.54-1.08-7.17-0.1-9.82,1.08c-4.61,2.26-7.95,6.48-7.95,13.45v29.46h-4.52v-48.31h4.62v7.27
		c6.58-8.35,15.12-9.03,19.83-6.68L1346.2,463.31z"/>
	<path d="M1385.97,507.89c-3.93,0-8.74-0.88-12.67-6.68v6.28h-4.52v-68.44h4.52v26.12c4.71-6.58,10.11-6.78,12.67-6.78
		c11.78,0,15.02,12.37,15.02,23.47C1400.99,496.99,1396.47,507.89,1385.97,507.89z M1395.59,472.74c-0.39-2.06-0.79-2.95-1.87-4.61
		c-1.87-3.04-4.91-5.3-8.94-5.3c-4.03,0-7.07,2.26-8.93,5.3c-1.08,1.67-1.38,2.65-1.77,4.71c-0.29,1.96-0.79,4.91-0.79,10.41
		s0.39,8.54,0.69,10.6c0.39,2.06,0.79,3.04,1.87,4.71c1.87,3.14,5.01,5.11,8.93,5.11c3.83,0,7.07-1.96,8.94-5.11
		c1.08-1.67,1.47-2.65,1.87-4.71c0.49-2.75,0.79-5.11,0.79-10.6S1395.89,474.8,1395.59,472.74z"/>
	<path d="M1426.42,483.74v-4.71h4.61v4.71H1426.42z M1426.42,507.4v-4.71h4.61v4.71H1426.42z"/>
	<path d="M1509.3,443.19v64.22h-4.71v-64.22h-16.5v-4.12h37.61v4.12H1509.3z"/>
	<path d="M1572.54,498.76c-2.36,6.09-8.15,9.33-14.43,9.33s-12.08-3.24-14.43-9.33c-1.08-2.75-1.38-6.68-1.47-11.29
		c-0.1-2.85-0.1-5.69,0-8.54c0.1-4.62,0.39-8.44,1.47-11.19c2.36-5.99,8.44-9.43,14.43-9.43c5.99,0,12.08,3.44,14.43,9.43
		c1.08,2.75,1.37,6.58,1.47,11.19c0.1,2.85,0.1,5.69,0,8.54C1573.91,492.08,1573.62,496.01,1572.54,498.76z M1567.33,468.13
		c-1.87-3.04-5.01-5.3-9.23-5.3c-4.22,0-7.46,2.26-9.33,5.3c-1.08,1.67-1.47,2.65-1.87,4.71c-0.29,1.96-0.39,4.91-0.39,10.41
		s0.1,8.54,0.39,10.6c0.39,2.06,0.79,3.04,1.87,4.71c1.96,3.14,5.3,5.11,9.33,5.11c4.03,0,7.36-1.96,9.23-5.11
		c1.08-1.67,1.57-2.65,1.96-4.71c0.49-2.75,0.49-5.11,0.49-10.6C1569.79,472.25,1569.3,471.27,1567.33,468.13z"/>
	<path d="M1665.53,507.4h-4.52v-4.32c0,0.1-0.29,0.2-0.29,0.29c-3.04,3.63-8.74,4.71-13.75,4.71c-4.03,0-7.66-1.38-9.92-3.63
		c-2.65-2.45-4.22-5.99-4.22-10.21c0-7.46,4.81-14.63,13.75-14.63h14.43v-7.17c0-5.99-4.91-9.82-11.98-9.82
		c-3.93,0-8.05,2.65-10.02,5.7l-3.63-2.16c2.75-4.62,7.85-7.86,13.45-7.86c9.13,0,16.69,3.54,16.69,14.83V507.4z M1661.01,483.54
		h-12.17c-6.19,0-11.78,2.65-11.78,10.11c0,5.5,3.83,10.31,11.19,10.31c6.09,0,12.76-3.14,12.76-9.72V483.54z"/>
	<path d="M1718.45,507.5v-6.28c-3.93,5.79-8.74,6.68-12.67,6.68c-11,0-15.02-10.9-15.02-26.02c0-11.1,3.53-23.47,15.02-23.47
		c2.55,0,7.95,0.2,12.67,6.78v-26.12h4.52v68.44H1718.45z M1717.76,472.74c-0.39-2.06-0.79-2.95-1.87-4.61
		c-1.87-3.04-4.91-5.3-8.94-5.3c-4.03,0-7.07,2.26-8.94,5.3c-1.08,1.67-1.38,2.65-1.77,4.71c-0.29,1.96-0.79,4.91-0.79,10.41
		s0.39,8.54,0.69,10.6c0.39,2.06,0.79,3.04,1.87,4.71c1.87,3.14,5.01,5.11,8.94,5.11c3.83,0,7.07-1.96,8.94-5.11
		c1.08-1.67,1.47-2.65,1.87-4.71c0.49-2.75,0.79-5.11,0.79-10.6S1718.06,474.8,1717.76,472.74z"/>
	<path d="M1778.84,498.76c-2.36,6.09-8.15,9.33-14.43,9.33s-12.08-3.24-14.43-9.33c-1.08-2.75-1.38-6.68-1.47-11.29
		c-0.1-2.85-0.1-5.69,0-8.54c0.1-4.62,0.39-8.44,1.47-11.19c2.36-5.99,8.44-9.43,14.43-9.43c5.99,0,12.08,3.44,14.43,9.43
		c1.08,2.75,1.37,6.58,1.47,11.19c0.1,2.85,0.1,5.69,0,8.54C1780.21,492.08,1779.92,496.01,1778.84,498.76z M1773.64,468.13
		c-1.87-3.04-5.01-5.3-9.23-5.3c-4.22,0-7.46,2.26-9.33,5.3c-1.08,1.67-1.47,2.65-1.87,4.71c-0.29,1.96-0.39,4.91-0.39,10.41
		s0.1,8.54,0.39,10.6c0.39,2.06,0.79,3.04,1.87,4.71c1.96,3.14,5.3,5.11,9.33,5.11c4.03,0,7.36-1.96,9.23-5.11
		c1.08-1.67,1.57-2.65,1.96-4.71c0.49-2.75,0.49-5.11,0.49-10.6C1776.09,472.25,1775.6,471.27,1773.64,468.13z"/>
	<path d="M1831.18,463.31c-3.54-1.08-7.17-0.1-9.82,1.08c-4.61,2.26-7.95,6.48-7.95,13.45v29.46h-4.52v-48.31h4.62v7.27
		c6.58-8.35,15.12-9.03,19.83-6.68L1831.18,463.31z"/>
	<path d="M1882.24,507.4v-24.74v-2.45c0-3.24,0-7.95-0.98-10.21c-1.47-3.83-4.91-7.17-10.41-7.17c-6.68,0-11.59,4.81-11.59,12.18
		v32.4h-4.62V458.9h4.62v5.4h0.29c3.04-4.32,7.95-5.99,12.57-5.99c8.64,0,14.63,6.28,14.63,15.71v33.38H1882.24z"/>
	<path d="M1218.55,591.76v64.22h-4.71v-64.22h-16.5v-4.12h37.61v4.12H1218.55z"/>
	<path d="M1281.79,647.34c-2.36,6.09-8.15,9.33-14.43,9.33s-12.08-3.24-14.43-9.33c-1.08-2.75-1.38-6.68-1.47-11.29
		c-0.1-2.85-0.1-5.7,0-8.54c0.1-4.61,0.39-8.44,1.47-11.19c2.36-5.99,8.44-9.43,14.43-9.43c5.99,0,12.08,3.44,14.43,9.43
		c1.08,2.75,1.37,6.58,1.47,11.19c0.1,2.85,0.1,5.7,0,8.54C1283.16,640.66,1282.87,644.59,1281.79,647.34z M1276.58,616.7
		c-1.87-3.04-5.01-5.3-9.23-5.3c-4.22,0-7.46,2.26-9.33,5.3c-1.08,1.67-1.47,2.65-1.87,4.71c-0.29,1.96-0.39,4.91-0.39,10.41
		c0,5.5,0.1,8.54,0.39,10.61c0.39,2.06,0.79,3.04,1.87,4.71c1.96,3.14,5.3,5.11,9.33,5.11c4.03,0,7.36-1.96,9.23-5.11
		c1.08-1.67,1.57-2.65,1.96-4.71c0.49-2.75,0.49-5.11,0.49-10.61C1279.04,620.83,1278.54,619.84,1276.58,616.7z"/>
	<path d="M1369.96,656.08v-6.28c-3.93,5.79-8.74,6.68-12.67,6.68c-11,0-15.02-10.9-15.02-26.02c0-11.1,3.53-23.47,15.02-23.47
		c2.55,0,7.95,0.2,12.67,6.78v-26.12h4.52v68.44H1369.96z M1369.28,621.32c-0.39-2.06-0.79-2.95-1.87-4.62
		c-1.87-3.04-4.91-5.3-8.94-5.3c-4.03,0-7.07,2.26-8.94,5.3c-1.08,1.67-1.38,2.65-1.77,4.71c-0.29,1.96-0.79,4.91-0.79,10.41
		c0,5.5,0.39,8.54,0.69,10.61c0.39,2.06,0.79,3.04,1.87,4.71c1.87,3.14,5.01,5.11,8.94,5.11c3.83,0,7.07-1.96,8.94-5.11
		c1.08-1.67,1.47-2.65,1.87-4.71c0.49-2.75,0.79-5.11,0.79-10.61C1370.06,626.32,1369.57,623.38,1369.28,621.32z"/>
	<path d="M1403.84,633.59c0,4.32,0.1,6.78,0.39,8.64c0.79,6.28,6.09,10.02,11.88,10.02c4.62,0,8.25-2.26,10.11-5.01l3.53,1.87
		c-3.04,5.11-8.64,7.46-13.65,7.46c-5.99,0-12.76-3.14-15.12-9.43c-1.08-2.65-1.37-6.58-1.47-11.19c0-1.08-0.1-1.37-0.1-1.87v-2.36
		v-2.46c0-0.49,0.1-0.79,0.1-1.87c0.1-4.62,0.39-8.44,1.47-11.19c2.36-6.19,8.84-9.33,14.83-9.33c9.23,0,15.91,6.48,15.91,17.48
		v9.23H1403.84z M1426.62,619.65c-1.57-5.2-5.3-8.44-10.8-8.44c-5.89,0-11.1,3.93-11.59,10.11c-0.1,1.67-0.39,4.03-0.39,8.05h23.37
		C1427.21,627.4,1427.11,621.12,1426.62,619.65z"/>
	<path d="M1483.47,617.19c-2.26-3.83-5.79-5.89-10.01-5.89c-5.89,0-10.51,3.73-11.39,10.02c-0.29,1.96-0.39,4.91-0.39,10.41
		s0.1,8.54,0.39,10.51c1.08,6.38,5.5,10.02,11.39,10.02c4.03,0,7.66-1.87,9.72-4.91l0.2-0.29l3.73,1.77
		c-2.75,5.11-8.15,7.76-13.65,7.76c-6.19,0-12.08-3.14-14.43-9.43c-1.08-2.65-1.37-6.58-1.47-11.19c0-1.08-0.1-1.37-0.1-1.87v-2.36
		v-2.46c0-0.49,0.1-0.79,0.1-1.87c0.1-4.62,0.39-8.44,1.47-11.19c2.36-6.28,8.25-9.43,14.43-9.43c5.89,0,11.68,3.34,14.04,8.44
		L1483.47,617.19z"/>
	<path d="M1541.12,647.34c-2.36,6.09-8.15,9.33-14.43,9.33s-12.08-3.24-14.43-9.33c-1.08-2.75-1.38-6.68-1.47-11.29
		c-0.1-2.85-0.1-5.7,0-8.54c0.1-4.61,0.39-8.44,1.47-11.19c2.36-5.99,8.44-9.43,14.43-9.43c5.99,0,12.08,3.44,14.43,9.43
		c1.08,2.75,1.37,6.58,1.47,11.19c0.1,2.85,0.1,5.7,0,8.54C1542.49,640.66,1542.2,644.59,1541.12,647.34z M1535.91,616.7
		c-1.87-3.04-5.01-5.3-9.23-5.3c-4.22,0-7.46,2.26-9.33,5.3c-1.08,1.67-1.47,2.65-1.87,4.71c-0.29,1.96-0.39,4.91-0.39,10.41
		c0,5.5,0.1,8.54,0.39,10.61c0.39,2.06,0.79,3.04,1.87,4.71c1.96,3.14,5.3,5.11,9.33,5.11c4.03,0,7.36-1.96,9.23-5.11
		c1.08-1.67,1.57-2.65,1.96-4.71c0.49-2.75,0.49-5.11,0.49-10.61C1538.37,620.83,1537.88,619.84,1535.91,616.7z"/>
	<path d="M1593.45,611.89c-3.54-1.08-7.17-0.1-9.82,1.08c-4.61,2.26-7.95,6.48-7.95,13.45v29.46h-4.52v-48.31h4.62v7.27
		c6.58-8.35,15.12-9.03,19.83-6.68L1593.45,611.89z"/>
	<path d="M1647.36,655.98h-4.52v-4.32c0,0.1-0.29,0.2-0.29,0.29c-3.04,3.63-8.74,4.71-13.75,4.71c-4.03,0-7.66-1.38-9.92-3.63
		c-2.65-2.46-4.22-5.99-4.22-10.21c0-7.46,4.81-14.63,13.75-14.63h14.43v-7.17c0-5.99-4.91-9.82-11.98-9.82
		c-3.93,0-8.05,2.65-10.02,5.69l-3.63-2.16c2.75-4.61,7.85-7.85,13.45-7.85c9.13,0,16.69,3.53,16.69,14.83V655.98z M1642.84,632.12
		h-12.17c-6.19,0-11.78,2.65-11.78,10.11c0,5.5,3.83,10.31,11.19,10.31c6.09,0,12.76-3.14,12.76-9.72V632.12z"/>
	<path d="M1680.35,611.1v32.4c0,5.2,1.18,8.15,6.78,8.44h0.69v4.03h-1.96c-6.97,0-10.11-4.22-10.11-10.02V611.1h-5.6v-3.63h5.6
		v-15.81h4.62v15.81h7.46v3.63H1680.35z"/>
	<path d="M1715.7,633.59c0,4.32,0.1,6.78,0.39,8.64c0.79,6.28,6.09,10.02,11.88,10.02c4.62,0,8.25-2.26,10.11-5.01l3.53,1.87
		c-3.04,5.11-8.64,7.46-13.65,7.46c-5.99,0-12.76-3.14-15.12-9.43c-1.08-2.65-1.37-6.58-1.47-11.19c0-1.08-0.1-1.37-0.1-1.87v-2.36
		v-2.46c0-0.49,0.1-0.79,0.1-1.87c0.1-4.62,0.39-8.44,1.47-11.19c2.36-6.19,8.84-9.33,14.83-9.33c9.23,0,15.91,6.48,15.91,17.48
		v9.23H1715.7z M1738.48,619.65c-1.57-5.2-5.3-8.44-10.8-8.44c-5.89,0-11.1,3.93-11.59,10.11c-0.1,1.67-0.39,4.03-0.39,8.05h23.37
		C1739.07,627.4,1738.97,621.12,1738.48,619.65z"/>
	<path d="M1218.55,740.34v64.22h-4.71v-64.22h-16.5v-4.12h37.61v4.12H1218.55z"/>
	<path d="M1281.79,795.91c-2.36,6.09-8.15,9.33-14.43,9.33s-12.08-3.24-14.43-9.33c-1.08-2.75-1.38-6.68-1.47-11.29
		c-0.1-2.85-0.1-5.7,0-8.54c0.1-4.61,0.39-8.44,1.47-11.19c2.36-5.99,8.44-9.43,14.43-9.43c5.99,0,12.08,3.44,14.43,9.43
		c1.08,2.75,1.37,6.58,1.47,11.19c0.1,2.85,0.1,5.7,0,8.54C1283.16,789.24,1282.87,793.16,1281.79,795.91z M1276.58,765.28
		c-1.87-3.04-5.01-5.3-9.23-5.3c-4.22,0-7.46,2.26-9.33,5.3c-1.08,1.67-1.47,2.65-1.87,4.71c-0.29,1.96-0.39,4.91-0.39,10.41
		c0,5.5,0.1,8.54,0.39,10.61c0.39,2.06,0.79,3.04,1.87,4.71c1.96,3.14,5.3,5.11,9.33,5.11c4.03,0,7.36-1.96,9.23-5.11
		c1.08-1.67,1.57-2.65,1.96-4.71c0.49-2.75,0.49-5.11,0.49-10.61C1279.04,769.4,1278.54,768.42,1276.58,765.28z"/>
	<path d="M1375.95,806.62c0,5.5-0.79,10.51-5.01,14.34c-3.04,2.65-6.97,4.03-10.9,4.03c-5.5,0-11-2.65-13.75-7.66l3.73-1.87
		l0.2,0.29c2.06,3.04,5.6,5.11,9.82,5.11c4.22,0,7.85-2.16,9.92-5.7c1.47-2.36,1.37-5.01,1.37-7.76v-9.03
		c-4.71,6.58-10.21,6.87-12.86,6.87c-11.78,0-14.73-12.37-14.73-23.47c0-15.12,3.63-26.12,15.02-26.12c3.83,0,7.56-0.29,12.57,6.77
		v-6.28h4.62V806.62z M1370.65,769.89c-0.39-2.06-0.79-2.95-1.87-4.62c-1.87-3.04-4.91-5.3-8.93-5.3c-4.03,0-7.07,2.26-8.94,5.3
		c-1.08,1.67-1.38,2.65-1.77,4.71c-0.29,1.96-0.79,4.91-0.79,10.41c0,5.5,0.39,8.54,0.69,10.61c0.39,2.06,0.79,3.04,1.87,4.71
		c1.87,3.14,5.01,5.11,8.94,5.11c3.83,0,7.07-1.96,8.93-5.11c1.08-1.67,1.47-2.65,1.87-4.71c0.49-2.75,0.79-5.11,0.79-10.61
		C1371.44,774.9,1370.94,771.95,1370.65,769.89z"/>
	<path d="M1428.29,760.47c-3.54-1.08-7.17-0.1-9.82,1.08c-4.61,2.26-7.95,6.48-7.95,13.45v29.46H1406v-48.31h4.62v7.27
		c6.58-8.35,15.12-9.03,19.83-6.68L1428.29,760.47z"/>
	<path d="M1482.2,804.55h-4.52v-4.32c0,0.1-0.29,0.2-0.29,0.29c-3.04,3.63-8.74,4.71-13.75,4.71c-4.03,0-7.66-1.38-9.92-3.63
		c-2.65-2.46-4.22-5.99-4.22-10.21c0-7.46,4.81-14.63,13.75-14.63h14.43v-7.17c0-5.99-4.91-9.82-11.98-9.82
		c-3.93,0-8.05,2.65-10.02,5.69l-3.63-2.16c2.75-4.61,7.85-7.85,13.45-7.85c9.13,0,16.69,3.53,16.69,14.83V804.55z M1477.68,780.69
		h-12.17c-6.19,0-11.78,2.65-11.78,10.11c0,5.5,3.83,10.31,11.19,10.31c6.09,0,12.76-3.14,12.76-9.72V780.69z"/>
	<path d="M1534.14,765.77c-2.26-3.83-5.79-5.89-10.01-5.89c-5.89,0-10.51,3.73-11.39,10.02c-0.29,1.96-0.39,4.91-0.39,10.41
		s0.1,8.54,0.39,10.51c1.08,6.38,5.5,10.02,11.39,10.02c4.03,0,7.66-1.87,9.72-4.91l0.2-0.29l3.73,1.77
		c-2.75,5.11-8.15,7.76-13.65,7.76c-6.19,0-12.08-3.14-14.43-9.43c-1.08-2.65-1.37-6.58-1.47-11.19c0-1.08-0.1-1.37-0.1-1.87v-2.36
		v-2.46c0-0.49,0.1-0.79,0.1-1.87c0.1-4.62,0.39-8.44,1.47-11.19c2.36-6.28,8.25-9.43,14.43-9.43c5.89,0,11.68,3.34,14.04,8.44
		L1534.14,765.77z"/>
	<path d="M1565.27,782.17c0,4.32,0.1,6.78,0.39,8.64c0.79,6.28,6.09,10.02,11.88,10.02c4.62,0,8.25-2.26,10.11-5.01l3.53,1.87
		c-3.04,5.11-8.64,7.46-13.65,7.46c-5.99,0-12.76-3.14-15.12-9.43c-1.08-2.65-1.37-6.58-1.47-11.19c0-1.08-0.1-1.37-0.1-1.87v-2.36
		v-2.46c0-0.49,0.1-0.79,0.1-1.87c0.1-4.62,0.39-8.44,1.47-11.19c2.36-6.19,8.84-9.33,14.83-9.33c9.23,0,15.91,6.48,15.91,17.48
		v9.23H1565.27z M1588.05,768.22c-1.57-5.2-5.3-8.44-10.8-8.44c-5.89,0-11.1,3.93-11.59,10.11c-0.1,1.67-0.39,4.03-0.39,8.05h23.37
		C1588.64,775.98,1588.54,769.7,1588.05,768.22z"/>
</g>
<g>
	<path d="M1479.55,299.74c-3.49,0.61-7.59-0.61-11.43-1.92c-2.71-0.96-5.59-1.92-7.94-1.92c-2.71,0-4.36,0.87-6.81,3.23l-2.36-1.83
		c2.09-2.53,5.15-4.8,9.25-4.8c2.01,0,4.28,0.44,6.81,1.31c1.31,0.44,2.79,0.79,4.28,1.4c2.79,0.96,5.59,1.66,8.03,1.22
		c2.09-0.35,3.4-1.13,5.5-3.14l2.09,1.83C1484.88,297.82,1482.7,299.3,1479.55,299.74z"/>
</g>
<linearGradient id="SVGID_00000093867460571539394650000017111262206440795580_" gradientUnits="userSpaceOnUse" x1="1087.569" y1="804.5596" x2="1087.569" y2="311.3512">
	<stop  offset="0" style="stop-color:#BF8E4E"/>
	<stop  offset="0.51" style="stop-color:#EECE79"/>
	<stop  offset="1" style="stop-color:#BF8E4E"/>
</linearGradient>
<rect x="1084.65" y="311.35" style="fill:url(#SVGID_00000093867460571539394650000017111262206440795580_);" width="5.83" height="493.21"/>
<g>
	<g>
		<path d="M100.1,803.87v-17.55H85.18v17.55h-2.53v-36.68h2.53v16.97h14.92v-16.97h2.53v36.68H100.1z"/>
		<path d="M151.43,803.87l-2.53-8.8h-13.81l-2.48,8.8h-2.53l10.59-36.68h2.64l10.7,36.68H151.43z M141.94,770.77l-0.05,0.05
			l-6.27,22.13h12.7L141.94,770.77z"/>
		<path d="M200.49,803.87c-11.12-20.82-16.71-30.83-16.71-29.94v3.64c0,3,0.05,7.27,0.05,11.91v7.17v7.22h-2.58v-36.68h2.69
			l16.6,31.52v-31.52h2.53v36.68H200.49z"/>
		<path d="M253.18,789.9c0,1.48-0.05,2.79-0.16,3.95c-0.21,2.27-0.74,4.06-1.53,5.38c-1.69,2.9-5.06,4.58-9.01,4.58h-9.38v-36.63
			h9.54c3.95,0,7.22,1.79,8.91,4.58c1,1.69,1.63,3.74,1.63,6.64V789.9z M250.71,780.31c0-1.69,0-3.37-0.42-5.01
			c-0.47-1.74-1.32-3.27-3.16-4.58c-1.21-0.9-2.74-1.37-4.53-1.37h-7.01v32.36h6.48c7.17,0,8.64-5.69,8.64-11.33V780.31z"/>
		<path d="M307.36,803.87V772.3l-10.01,25.14h-2l-10.01-24.98v31.41h-2.53v-36.68h3l10.49,26.3l0.16-0.11l10.49-26.19h3v36.68
			H307.36z"/>
		<path d="M358.31,803.87l-2.53-8.8h-13.81l-2.48,8.8h-2.53l10.59-36.68h2.64l10.7,36.68H358.31z M348.83,770.77l-0.05,0.05
			l-6.27,22.13h12.7L348.83,770.77z"/>
		<path d="M408.37,789.9c0,1.48-0.05,2.79-0.16,3.95c-0.21,2.27-0.74,4.06-1.53,5.38c-1.69,2.9-5.06,4.58-9.01,4.58h-9.38v-36.63
			h9.54c3.95,0,7.22,1.79,8.91,4.58c1,1.69,1.63,3.74,1.63,6.64V789.9z M405.9,780.31c0-1.69,0-3.37-0.42-5.01
			c-0.47-1.74-1.32-3.27-3.16-4.58c-1.21-0.9-2.74-1.37-4.53-1.37h-7.01v32.36h6.48c7.17,0,8.64-5.69,8.64-11.33V780.31z"/>
		<path d="M437.99,803.87v-36.68h18.02v2.21h-15.5v14.76h13.33v2.21h-13.33v15.13h15.5v2.37H437.99z"/>
		<path d="M518.88,804.24c-2.69,0-4.74-0.95-6.27-2.37l2-1.74c1.21,0.9,2.64,1.53,4.27,1.53c2.95,0,7.12-1.9,7.12-7.75v-26.72h2.53
			v27.41C528.52,800.29,524.57,804.24,518.88,804.24z"/>
		<path d="M558.56,803.87v-36.68h18.02v2.21h-15.5v14.76h13.33v2.21h-13.33v15.13h15.5v2.37H558.56z"/>
		<path d="M629.22,803.87h-2.27l-7.43-31.73h-0.16l-7.38,31.73h-2.27l-7.43-36.68h2.53l6.01,30.88h0.21l7.22-30.88h2.48l7.27,30.88
			h0.16l5.96-30.88h2.53L629.22,803.87z"/>
		<path d="M664.63,803.87v-36.68h18.02v2.21h-15.5v14.76h13.33v2.21h-13.33v15.13h15.5v2.37H664.63z"/>
		<path d="M710.69,803.87v-36.68h2.53v34.31h15.5v2.37H710.69z"/>
		<path d="M756.22,803.87v-36.68h2.53v34.31h15.5v2.37H756.22z"/>
		<path d="M801.75,803.87v-36.68h18.02v2.21h-15.5v14.76h13.33v2.21h-13.33v15.13h15.5v2.37H801.75z"/>
		<path d="M865.83,803.87l-7.17-16.92h-8.33v16.92h-2.53v-36.68h10.91c5.74,0,9.33,3.21,9.33,9.8c0,4.9-2.16,8.8-6.85,9.7
			l7.33,17.18H865.83z M858.08,769.35h-7.75v15.39h7.91c5.27,0,7.38-3.16,7.38-7.8C865.62,772.25,863.35,769.35,858.08,769.35z"/>
		<path d="M905.51,788.53v15.34h-2.53v-15.34l-9.01-21.34h2.64l7.64,18.6l0.1-0.11l7.59-18.5h2.64L905.51,788.53z"/>
	</g>
</g>
</svg>
